<svg xmlns="http://www.w3.org/2000/svg" xmlns:xlink="http://www.w3.org/1999/xlink" width="145" zoomAndPan="magnify" viewBox="0 0 108.75 33.749998" height="45" preserveAspectRatio="xMidYMid meet" version="1.0"><defs><g/><clipPath id="id1"><path d="M 9 4.628906 L 28 4.628906 L 28 13 L 9 13 Z M 9 4.628906 " clip-rule="nonzero"/></clipPath><clipPath id="id2"><path d="M 6.320312 9 L 30.199219 9 L 30.199219 29.253906 L 6.320312 29.253906 Z M 6.320312 9 " clip-rule="nonzero"/></clipPath></defs><g clip-path="url(#id1)"><path fill="#6667ab" d="M 19.785156 12.207031 L 27.230469 8.609375 L 19.601562 5.097656 C 18.609375 4.636719 17.464844 4.648438 16.472656 5.117188 L 9.121094 8.605469 L 16.5625 12.207031 C 17.585938 12.703125 18.769531 12.703125 19.785156 12.207031 Z M 19.785156 12.207031 " fill-opacity="1" fill-rule="nonzero"/></g><g clip-path="url(#id2)"><path fill="#6667ab" d="M 28.648438 21.6875 C 28.476562 21.664062 28.296875 21.691406 28.132812 21.757812 L 23.894531 23.457031 L 19.683594 25.144531 C 18.734375 25.527344 17.671875 25.527344 16.722656 25.140625 L 10.523438 22.621094 C 10.089844 22.433594 9.644531 22.25 9.195312 22.085938 C 9.167969 22.046875 9.148438 22.015625 9.121094 21.976562 C 9.109375 21.242188 9.121094 20.507812 9.109375 19.773438 C 9.128906 19.835938 9.371094 19.925781 9.613281 20 L 14.535156 22.203125 C 14.722656 22.289062 14.917969 22.371094 15.105469 22.457031 L 15.460938 22.617188 L 15.460938 22.609375 C 16.085938 22.863281 16.71875 23.089844 17.375 23.253906 C 18.433594 23.523438 19.492188 23.128906 20.488281 22.78125 C 23.28125 21.785156 25.820312 20.140625 28.566406 19.023438 C 29.226562 18.753906 29.953125 18.320312 30.078125 17.546875 C 30.164062 17.097656 30.015625 16.683594 29.75 16.355469 C 29.75 16.351562 29.746094 16.351562 29.738281 16.34375 C 29.050781 15.402344 28.117188 15.667969 27.882812 15.757812 C 27.871094 15.761719 27.863281 15.761719 27.851562 15.769531 C 27.832031 15.773438 27.824219 15.777344 27.824219 15.777344 C 24.878906 17.132812 21.992188 18.65625 18.980469 19.832031 C 18.453125 20.007812 17.890625 19.90625 17.359375 19.808594 C 14.5 18.851562 11.910156 17.148438 9.050781 16.179688 C 9.074219 15.378906 9.113281 14.582031 9.105469 13.785156 C 9.390625 13.898438 9.660156 14.039062 9.933594 14.171875 C 11.210938 14.804688 12.5 15.394531 13.785156 15.988281 C 14.960938 16.53125 16.15625 17.246094 17.46875 17.34375 C 19.976562 17.53125 22.070312 16.167969 24.242188 15.136719 C 25.496094 14.539062 26.796875 14.023438 28.035156 13.394531 C 28.816406 13.03125 29.902344 12.71875 30.074219 11.707031 C 30.125 11.371094 30.054688 11.050781 29.902344 10.773438 C 29.503906 10.015625 28.597656 9.691406 27.785156 9.949219 C 27.089844 10.175781 26.457031 10.558594 25.792969 10.839844 C 25.023438 11.167969 24.269531 11.546875 23.507812 11.898438 C 22.488281 12.390625 21.460938 12.855469 20.4375 13.328125 C 19.941406 13.558594 19.4375 13.851562 18.921875 14.011719 C 18.398438 14.167969 17.878906 14.082031 17.355469 13.964844 C 14.65625 12.921875 12.0625 11.578125 9.449219 10.328125 C 8.964844 10.003906 8.3125 9.820312 7.714844 9.863281 C 6.917969 9.925781 6.320312 10.625 6.320312 11.4375 L 6.402344 22.789062 C 6.40625 23.480469 6.769531 24.117188 7.359375 24.457031 C 8.054688 24.867188 9.074219 25.449219 10.25 26.070312 C 10.253906 26.074219 10.261719 26.078125 10.273438 26.078125 C 11.066406 26.464844 11.875 26.820312 12.667969 27.210938 C 13.476562 27.597656 14.285156 28 15.105469 28.363281 C 15.621094 28.566406 16.148438 28.753906 16.679688 28.914062 C 17.160156 29.0625 17.671875 29.226562 18.183594 29.238281 C 18.839844 29.246094 19.488281 29.011719 20.082031 28.753906 C 20.589844 28.527344 21.085938 28.292969 21.585938 28.066406 C 21.59375 28.066406 21.597656 28.0625 21.601562 28.0625 C 22.128906 27.824219 22.660156 27.582031 23.183594 27.34375 C 23.769531 27.078125 24.347656 26.8125 24.933594 26.550781 C 25.488281 26.296875 26.046875 26.046875 26.601562 25.789062 C 27.050781 25.585938 27.503906 25.382812 27.953125 25.179688 C 28.21875 25.0625 28.480469 24.9375 28.746094 24.820312 C 28.777344 24.804688 28.816406 24.785156 28.851562 24.773438 L 28.925781 24.738281 L 28.933594 24.746094 C 29.488281 24.453125 30.039062 24.046875 30.117188 23.386719 C 30.199219 22.34375 29.492188 21.808594 28.648438 21.6875 Z M 28.648438 21.6875 " fill-opacity="1" fill-rule="nonzero"/></g><g fill="#353769" fill-opacity="1"><g transform="translate(32.09403, 16.117854)"><g><path d="M 0.652344 0 L 2.800781 0 C 3.136719 0 3.277344 -0.492188 3.007812 -0.683594 C 2.914062 -0.75 2.816406 -0.8125 2.738281 -0.859375 C 2.484375 -1.019531 2.308594 -1.289062 2.324219 -1.558594 L 2.578125 -8.847656 L 5.761719 -0.445312 C 5.875 -0.175781 6.128906 0 6.414062 0 L 7.164062 0 C 7.449219 0 7.6875 -0.175781 7.800781 -0.445312 L 10.773438 -8.800781 L 11.140625 -1.558594 C 11.125 -1.273438 10.964844 -1.003906 10.695312 -0.875 C 10.585938 -0.8125 10.472656 -0.75 10.378906 -0.683594 C 10.121094 -0.492188 10.265625 0 10.585938 0 L 15.503906 0 C 15.835938 0 15.996094 -0.492188 15.726562 -0.683594 C 15.628906 -0.75 15.535156 -0.8125 15.4375 -0.859375 C 15.199219 -1.019531 15.039062 -1.289062 15.039062 -1.558594 L 14.628906 -10.027344 C 14.644531 -10.28125 14.800781 -10.535156 15.023438 -10.679688 C 15.121094 -10.726562 15.214844 -10.792969 15.3125 -10.855469 C 15.582031 -11.046875 15.421875 -11.539062 15.089844 -11.539062 L 11.238281 -11.539062 C 10.949219 -11.539062 10.695312 -11.363281 10.585938 -11.09375 L 8.292969 -4.871094 L 5.777344 -11.09375 C 5.667969 -11.363281 5.410156 -11.539062 5.125 -11.539062 L 0.972656 -11.539062 C 0.652344 -11.539062 0.507812 -11.046875 0.78125 -10.855469 C 0.859375 -10.792969 0.972656 -10.726562 1.097656 -10.664062 C 1.320312 -10.550781 1.480469 -10.34375 1.511719 -10.105469 L 1.210938 -1.558594 C 1.210938 -1.273438 1.035156 -1.003906 0.78125 -0.875 C 0.652344 -0.8125 0.542969 -0.75 0.460938 -0.683594 C 0.191406 -0.492188 0.335938 0 0.652344 0 Z M 0.652344 0 "/></g></g></g><g fill="#353769" fill-opacity="1"><g transform="translate(48.263712, 16.117854)"><g><path d="M 0.191406 -3.722656 C 0.191406 -1.160156 1.925781 0.222656 4.566406 0.222656 C 7.226562 0.222656 8.960938 -1.035156 8.960938 -3.722656 C 8.960938 -6.414062 7.226562 -7.671875 4.566406 -7.671875 C 1.925781 -7.671875 0.191406 -6.285156 0.191406 -3.722656 Z M 4.058594 -6.75 C 4.789062 -6.875 5.011719 -6.191406 5.410156 -3.867188 C 5.792969 -1.542969 5.792969 -0.8125 5.078125 -0.683594 C 4.359375 -0.558594 4.121094 -1.257812 3.742188 -3.582031 C 3.34375 -5.90625 3.34375 -6.621094 4.058594 -6.75 Z M 4.058594 -6.75 "/></g></g></g><g fill="#353769" fill-opacity="1"><g transform="translate(57.733166, 16.117854)"><g><path d="M 0.398438 -6.238281 C 0.605469 -6.238281 0.859375 -6.285156 1.066406 -6.285156 C 1.289062 -6.285156 1.449219 -6.222656 1.449219 -5.96875 L 1.449219 -1.558594 C 1.449219 -1.273438 1.289062 -1.003906 1.019531 -0.875 C 0.90625 -0.8125 0.796875 -0.75 0.699219 -0.683594 C 0.429688 -0.492188 0.589844 0 0.90625 0 L 5.460938 0 C 5.792969 0 5.953125 -0.492188 5.667969 -0.683594 C 5.570312 -0.75 5.492188 -0.8125 5.394531 -0.859375 C 5.15625 -1.019531 4.980469 -1.289062 4.980469 -1.558594 L 4.980469 -4.25 C 5.0625 -5.0625 5.617188 -6 6.320312 -6.015625 C 7.082031 -6.03125 7.003906 -5.011719 7.003906 -4.152344 L 6.988281 -1.574219 C 7.003906 -0.765625 7.257812 0 8.417969 0 L 11.046875 0 C 11.378906 0 11.523438 -0.492188 11.253906 -0.683594 C 11.15625 -0.75 11.078125 -0.8125 10.980469 -0.859375 C 10.726562 -1.019531 10.570312 -1.289062 10.570312 -1.558594 L 10.570312 -5.21875 C 10.570312 -6.972656 9.742188 -7.703125 7.71875 -7.671875 C 6.589844 -7.640625 5.570312 -7.035156 4.980469 -6.144531 C 4.980469 -7.496094 4.425781 -7.65625 3.246094 -7.65625 C 2.226562 -7.65625 1.003906 -7.402344 0.285156 -6.988281 C -0.046875 -6.8125 0.046875 -6.269531 0.398438 -6.238281 Z M 0.398438 -6.238281 "/></g></g></g><g fill="#353769" fill-opacity="1"><g transform="translate(69.351145, 16.117854)"><g><path d="M 0.191406 -3.722656 C 0.222656 -1.160156 1.847656 0.414062 4.136719 0.222656 C 4.839844 0.160156 5.425781 -0.046875 5.921875 -0.351562 C 6.335938 0.015625 6.972656 0.191406 7.703125 0.207031 C 10.140625 0.238281 10.378906 -0.988281 9.996094 -1.082031 C 9.789062 -1.128906 9.597656 -0.84375 9.359375 -0.875 C 9.074219 -0.90625 8.976562 -1.195312 8.976562 -1.6875 C 8.976562 -2.324219 8.992188 -8.53125 8.992188 -9.628906 L 8.992188 -10.296875 C 8.992188 -11.667969 8.53125 -11.890625 7.304688 -11.890625 C 6.414062 -11.890625 5.347656 -11.683594 4.726562 -11.316406 C 4.410156 -11.140625 4.503906 -10.601562 4.855469 -10.570312 C 5.285156 -10.550781 5.410156 -10.550781 5.410156 -10.042969 L 5.410156 -7.351562 C 5.0625 -7.511719 4.664062 -7.625 4.21875 -7.671875 C 1.816406 -7.878906 0.144531 -6.253906 0.191406 -3.722656 Z M 4.074219 -6.765625 C 4.789062 -6.890625 5.011719 -6.351562 5.410156 -4.027344 C 5.792969 -1.703125 5.808594 -0.972656 5.078125 -0.84375 C 4.359375 -0.714844 4.121094 -1.417969 3.742188 -3.742188 C 3.34375 -6.0625 3.359375 -6.636719 4.074219 -6.765625 Z M 4.074219 -6.765625 "/></g></g></g><g fill="#353769" fill-opacity="1"><g transform="translate(79.727749, 16.117854)"><g><path d="M 0.351562 -1.71875 C 0.476562 -0.523438 1.574219 0.222656 3.023438 0.222656 C 4.171875 0.222656 5.285156 -0.269531 5.777344 -1.210938 C 5.953125 -0.269531 6.921875 0.191406 8.101562 0.207031 C 10.519531 0.238281 10.757812 -0.988281 10.378906 -1.082031 C 10.171875 -1.128906 9.996094 -0.84375 9.742188 -0.875 C 9.46875 -0.90625 9.375 -1.195312 9.375 -1.6875 C 9.375 -2.324219 9.375 -3.390625 9.390625 -4.488281 C 9.390625 -6.78125 7.464844 -7.65625 5.011719 -7.65625 C 2.753906 -7.671875 1.257812 -7.003906 1.195312 -6.03125 C 1.144531 -5.425781 1.832031 -5.125 2.5 -5.125 C 3.054688 -5.125 3.613281 -5.347656 3.722656 -5.761719 C 3.898438 -6.382812 4.011719 -6.875 4.824219 -6.859375 C 5.523438 -6.84375 5.761719 -6.269531 5.761719 -5.0625 L 5.761719 -4.519531 C 5.476562 -4.617188 4.980469 -4.679688 4.410156 -4.679688 C 2.65625 -4.679688 0.128906 -4.058594 0.351562 -1.71875 Z M 3.867188 -2.640625 C 3.964844 -3.628906 4.535156 -3.851562 5.03125 -3.851562 C 5.347656 -3.851562 5.648438 -3.757812 5.761719 -3.707031 L 5.746094 -2.832031 C 5.730469 -2.003906 5.585938 -1.304688 4.855469 -1.289062 C 4.152344 -1.257812 3.804688 -1.863281 3.867188 -2.640625 Z M 3.867188 -2.640625 "/></g></g></g><g fill="#353769" fill-opacity="1"><g transform="translate(90.502227, 16.117854)"><g><path d="M 0.160156 -6.78125 C 0.269531 -6.699219 0.398438 -6.636719 0.542969 -6.574219 C 0.75 -6.460938 0.953125 -6.269531 1.097656 -6.046875 C 2.738281 -2.59375 5.238281 2.246094 3.914062 2.753906 C 3.867188 2.769531 3.804688 2.785156 3.757812 2.785156 C 3.4375 2.816406 2.882812 2.324219 2.960938 1.402344 C 3.023438 0.75 2.277344 0.335938 1.542969 0.335938 C 0.9375 0.335938 0.335938 0.621094 0.191406 1.273438 C -0.113281 2.609375 1.113281 3.742188 3.007812 3.707031 C 5.15625 3.675781 5.761719 2.5 6.765625 0.207031 L 9.503906 -6 C 9.613281 -6.222656 9.835938 -6.445312 10.074219 -6.589844 C 10.171875 -6.636719 10.265625 -6.699219 10.378906 -6.78125 C 10.648438 -6.957031 10.488281 -7.449219 10.15625 -7.449219 L 8.117188 -7.449219 C 7.78125 -7.449219 7.640625 -6.957031 7.910156 -6.78125 C 7.988281 -6.714844 8.070312 -6.667969 8.164062 -6.605469 C 8.417969 -6.445312 8.5 -6.191406 8.402344 -5.9375 L 8.308594 -5.730469 L 8.324219 -5.730469 L 6.636719 -1.816406 C 6.429688 -2.691406 5.683594 -4.394531 4.996094 -6 C 4.933594 -6.238281 5.03125 -6.460938 5.253906 -6.605469 C 5.347656 -6.667969 5.425781 -6.714844 5.507812 -6.78125 C 5.761719 -6.957031 5.617188 -7.449219 5.300781 -7.449219 L 0.382812 -7.449219 C 0.046875 -7.449219 -0.113281 -6.957031 0.160156 -6.78125 Z M 3.851562 2.769531 C 3.820312 2.785156 3.789062 2.785156 3.757812 2.785156 C 3.789062 2.785156 3.820312 2.785156 3.851562 2.769531 Z M 3.851562 2.769531 "/></g></g></g><g fill="#353769" fill-opacity="1"><g transform="translate(36.89534, 27.609275)"><g><path d="M 0.59375 -4.203125 L 5.09375 -1.785156 L 5.378906 -2.367188 L 1.28125 -4.566406 L 5.390625 -6.777344 L 5.09375 -7.359375 L 0.582031 -4.941406 Z M 0.59375 -4.203125 "/></g></g></g><g fill="#353769" fill-opacity="1"><g transform="translate(42.869058, 27.609275)"><g><path d="M 0.246094 -1.164062 C 0.722656 -0.0390625 2.78125 0.207031 3.59375 0.207031 C 5.898438 0.207031 7.085938 -0.609375 7.007812 -2.042969 C 6.90625 -4.214844 2.664062 -3.945312 2.730469 -5.121094 C 2.742188 -5.457031 3.128906 -5.636719 3.609375 -5.597656 C 4.847656 -5.496094 4.757812 -4.320312 5.78125 -4.175781 C 6.273438 -4.113281 6.6875 -4.433594 6.59375 -4.925781 C 6.480469 -5.664062 5.40625 -6.179688 3.582031 -6.257812 C 1.566406 -6.347656 0.273438 -5.546875 0.285156 -4.382812 C 0.296875 -2.316406 4.5 -1.941406 4.5 -0.96875 C 4.5 -0.59375 4.203125 -0.363281 3.53125 -0.464844 C 1.835938 -0.722656 2.238281 -2.183594 1.097656 -2.339844 C 0.347656 -2.445312 -0.0390625 -1.808594 0.246094 -1.164062 Z M 0.246094 -1.164062 "/></g></g></g><g fill="#353769" fill-opacity="1"><g transform="translate(50.290946, 27.609275)"><g><path d="M 0.15625 -3.027344 C 0.207031 -0.945312 1.566406 0.179688 3.710938 0.179688 C 5.5625 0.179688 6.839844 -0.464844 7.175781 -2.054688 C 7.230469 -2.355469 7.152344 -2.523438 6.890625 -2.558594 C 6.648438 -2.585938 6.492188 -2.457031 6.425781 -2.171875 C 6.246094 -1.359375 5.625 -0.917969 4.8125 -0.917969 C 3.917969 -0.929688 3.257812 -1.472656 2.949219 -2.859375 C 2.636719 -4.230469 2.949219 -5.367188 3.53125 -5.484375 C 5.015625 -5.792969 3.464844 -3.464844 5.390625 -3.285156 C 6.503906 -3.179688 7.113281 -3.761719 7.035156 -4.488281 C 6.945312 -5.484375 5.703125 -6.234375 3.890625 -6.234375 C 1.746094 -6.234375 0.101562 -5.121094 0.15625 -3.027344 Z M 0.15625 -3.027344 "/></g></g></g><g fill="#353769" fill-opacity="1"><g transform="translate(57.842133, 27.609275)"><g><path d="M 0.324219 -5.070312 C 0.492188 -5.070312 0.699219 -5.109375 0.867188 -5.109375 C 1.046875 -5.109375 1.175781 -5.054688 1.175781 -4.847656 L 1.175781 -1.265625 C 1.175781 -1.035156 1.046875 -0.816406 0.828125 -0.710938 C 0.738281 -0.660156 0.648438 -0.609375 0.570312 -0.554688 C 0.347656 -0.402344 0.476562 0 0.738281 0 L 4.433594 0 C 4.707031 0 4.835938 -0.402344 4.605469 -0.554688 C 4.527344 -0.609375 4.460938 -0.660156 4.382812 -0.699219 C 4.191406 -0.828125 4.046875 -1.046875 4.046875 -1.265625 L 4.046875 -3.402344 C 4.046875 -4.125 4.292969 -5.40625 5.148438 -5.445312 C 6.207031 -5.484375 4.847656 -3.453125 6.632812 -3.285156 C 7.734375 -3.179688 8.261719 -3.761719 8.277344 -4.488281 C 8.289062 -5.546875 7.125 -6.453125 5.339844 -6.234375 C 4.527344 -6.128906 4.035156 -5.691406 3.761719 -5.210938 C 3.699219 -6.117188 3.195312 -6.21875 2.417969 -6.21875 C 1.667969 -6.21875 0.816406 -6.011719 0.234375 -5.675781 C -0.0390625 -5.535156 0.0390625 -5.09375 0.324219 -5.070312 Z M 0.324219 -5.070312 "/></g></g></g><g fill="#353769" fill-opacity="1"><g transform="translate(66.207914, 27.609275)"><g><path d="M 0.308594 -4.941406 C 0.476562 -4.941406 0.699219 -4.980469 0.867188 -4.980469 C 1.046875 -4.980469 1.175781 -4.925781 1.175781 -4.71875 L 1.175781 -1.265625 C 1.175781 -1.035156 1.035156 -0.816406 0.828125 -0.710938 C 0.722656 -0.660156 0.632812 -0.609375 0.570312 -0.554688 C 0.347656 -0.402344 0.464844 0 0.722656 0 L 4.472656 0 C 4.734375 0 4.863281 -0.402344 4.640625 -0.554688 C 4.566406 -0.609375 4.488281 -0.660156 4.421875 -0.699219 C 4.214844 -0.828125 4.085938 -1.046875 4.085938 -1.265625 L 4.085938 -4.785156 C 4.085938 -5.9375 3.671875 -6.089844 2.652344 -6.089844 C 1.824219 -6.089844 0.800781 -5.882812 0.21875 -5.546875 C -0.0390625 -5.40625 0.0273438 -4.964844 0.308594 -4.941406 Z M 0.671875 -8.484375 C 0.671875 -7.605469 1.320312 -7.085938 2.417969 -7.085938 C 3.515625 -7.085938 4.152344 -7.605469 4.152344 -8.484375 C 4.152344 -9.347656 3.515625 -9.855469 2.417969 -9.855469 C 1.320312 -9.855469 0.671875 -9.347656 0.671875 -8.484375 Z M 0.671875 -8.484375 "/></g></g></g><g fill="#353769" fill-opacity="1"><g transform="translate(71.134285, 27.609275)"><g><path d="M 0.324219 -5.070312 C 0.492188 -5.070312 0.699219 -5.109375 0.867188 -5.109375 C 1.046875 -5.109375 1.175781 -5.054688 1.175781 -4.847656 L 1.175781 1.667969 C 1.175781 1.902344 1.046875 2.132812 0.828125 2.238281 C 0.738281 2.289062 0.648438 2.339844 0.570312 2.390625 C 0.347656 2.546875 0.476562 2.949219 0.738281 2.949219 L 4.472656 2.949219 C 4.746094 2.949219 4.875 2.546875 4.640625 2.390625 C 4.566406 2.339844 4.5 2.289062 4.421875 2.25 C 4.230469 2.121094 4.085938 1.902344 4.085938 1.679688 L 4.085938 -0.128906 C 4.460938 0.0390625 4.835938 0.15625 5.1875 0.179688 C 7.023438 0.308594 8.457031 -0.96875 8.457031 -3.027344 C 8.457031 -5.054688 7.125 -6.347656 5.121094 -6.207031 C 4.566406 -6.15625 4.058594 -6 3.621094 -5.765625 C 3.402344 -6.195312 2.820312 -6.21875 2.40625 -6.21875 C 1.65625 -6.21875 0.816406 -6.011719 0.234375 -5.675781 C -0.0390625 -5.535156 0.0390625 -5.09375 0.324219 -5.070312 Z M 4.359375 -5.367188 C 4.953125 -5.46875 5.121094 -4.847656 5.445312 -3.140625 C 5.792969 -1.253906 5.765625 -0.660156 5.171875 -0.554688 C 4.589844 -0.453125 4.359375 -1.046875 4.085938 -2.910156 C 3.828125 -4.628906 3.777344 -5.277344 4.359375 -5.367188 Z M 4.359375 -5.367188 "/></g></g></g><g fill="#353769" fill-opacity="1"><g transform="translate(79.991408, 27.609275)"><g><path d="M 0.722656 -5.367188 L 1.449219 -5.367188 L 1.449219 -1.796875 C 1.449219 -0.492188 2.238281 0.179688 3.722656 0.207031 C 5.703125 0.234375 6.21875 -0.570312 6.066406 -0.839844 C 6.027344 -0.90625 5.960938 -0.917969 5.871094 -0.917969 C 5.625 -0.917969 5.1875 -0.710938 4.847656 -0.710938 C 4.578125 -0.710938 4.371094 -0.839844 4.371094 -1.332031 L 4.371094 -5.367188 L 5.523438 -5.367188 C 5.714844 -5.367188 5.84375 -5.496094 5.84375 -5.691406 C 5.84375 -5.898438 5.714844 -6.027344 5.523438 -6.027344 L 4.371094 -6.027344 L 4.371094 -8.730469 C 4.371094 -8.960938 4.214844 -9.089844 3.984375 -9.039062 L 2.597656 -8.753906 C 2.378906 -8.703125 2.210938 -8.523438 2.199219 -8.277344 C 2.082031 -7.203125 1.617188 -6.050781 0.660156 -6.027344 L 0.671875 -6.011719 C 0.503906 -6 0.402344 -5.871094 0.402344 -5.703125 L 0.402344 -5.691406 C 0.402344 -5.496094 0.53125 -5.367188 0.722656 -5.367188 Z M 0.722656 -5.367188 "/></g></g></g><g fill="#353769" fill-opacity="1"><g transform="translate(86.171999, 27.609275)"><g><path d="M 0.582031 -2.378906 L 0.878906 -1.785156 L 5.390625 -4.203125 L 5.390625 -4.214844 L 5.390625 -4.203125 L 5.390625 -4.941406 L 0.878906 -7.359375 L 0.59375 -6.777344 L 4.707031 -4.578125 Z M 0.582031 -2.378906 "/></g></g></g></svg>