<?xml version="1.0" encoding="utf-8"?>
<!-- Generator: Adobe Illustrator 26.0.3, SVG Export Plug-In . SVG Version: 6.00 Build 0)  -->
<svg version="1.1" id="Layer_1" xmlns="http://www.w3.org/2000/svg" xmlns:xlink="http://www.w3.org/1999/xlink" x="0px" y="0px"
	 viewBox="0 0 684.8 506.5" style="enable-background:new 0 0 684.8 506.5;" xml:space="preserve">
<style type="text/css">
	.st0{fill:#9E616A;}
	.st1{fill:#2F2E41;}
	.st2{fill:#6667AB;}
	.st3{fill:#4A2E00;}
	.st4{fill:#D29E94;}
	.st5{opacity:0.2;enable-background:new    ;}
	.st6{fill:#F2F2F2;}
	.st7{fill:#CACACA;}
	.st8{fill:#3F3D56;}
	.st9{opacity:0.2;}
</style>
<polygon class="st0" points="140.3,494.7 150.8,494.7 155.9,453.9 140.3,453.9 "/>
<path class="st1" d="M137.6,491.3l3,0l11.6-4.7l6.2,4.7h0c7.3,0,13.3,5.9,13.3,13.3v0.4l-34.1,0L137.6,491.3z"/>
<polygon class="st0" points="189.4,494.7 200,494.7 205,453.9 189.4,453.9 "/>
<path class="st1" d="M186.7,491.3l3,0l11.6-4.7l6.2,4.7h0c7.3,0,13.3,5.9,13.3,13.3v0.4l-34.1,0L186.7,491.3z"/>
<path class="st1" d="M197.8,271.6l-83.1,2.2l1.4,40.4c0,0-1.4,10.8,1.4,13.7s4.3,2.9,2.9,7.9s6.2,13.3,5.3,14.2s-3.1,6-3.1,6
	l7.2,41.2c0,0,5.1,71.5,6.5,72.9s2.9,0,1.4,3.6s-2.9,2.2-1.4,3.6c1.3,1.4,2.5,2.8,3.6,4.3h17.5c0,0,1.3-7.2,1.3-7.9s1.4-5.1,1.4-5.8
	s-1.3-2-1.3-2c-0.4-1.5-0.7-3-0.9-4.5c0-1.4-4.3-57.1-4.3-57.1l8.7-72.2l20.9,70.8c0,0,0,62.1,1.4,63.6s1.4,0.7,0.7,3.6
	s-3.6,2.2-1.4,4.3s2.9-1.4,2.2,2.2l-0.7,3.6l21.7,0.3c0,0,2.9-6.1,1.4-8.3s-1.4-1.6,0.4-5.1s2.5-4.3,1.8-5s-0.7-4.6-0.7-4.6
	l-3.6-69.1c0,0-0.7-72.9-0.7-75.1c-0.1-1.1,0.2-2.2,0.6-3.2v-2.9l-2.8-10.4L197.8,271.6z"/>
<path class="st0" d="M291.8,114c-1.5,4.2-6.1,6.4-10.3,4.9c-0.4-0.2-0.9-0.4-1.3-0.6l-36.1,30.2l-2-14.8l35.3-27
	c2.5-3.7,7.5-4.7,11.2-2.2C291.8,106.6,293.1,110.5,291.8,114L291.8,114z"/>
<circle class="st0" cx="132.8" cy="104.1" r="22.4"/>
<path class="st1" d="M151,81.8c-2.1-5-11-7.9-25.2-7.5s-16.6,17.3-16.6,17.3c-7.8,7.3,4.8,29.9,7,26.8c2.2-3.1,5.8-0.2,5.8-0.2
	l-3.5-19.6c3.7,1.4,7.6,2.4,11.1,0.7l-5.7-3.1c4.8,0.6,9.5,1.2,14.3,1.8l-5.9-4.5c0.1,0,0.3-0.1,0.4-0.1c2.4,1,4.9,1.6,7.5,1.7
	c3,0,6.2-1.4,7.5-4.2c0.3-0.7,0.5-1.6,0.5-2.4c4.1,1.3,6.3,6.2,6.3,6.2C153.7,90.4,152.5,86,151,81.8z"/>
<path class="st2" d="M150.8,127.5c-5,0-8.2,0.7-16,2c-14.4,2.4-5.8,16.1-5.8,16.1s0.6-0.3-1.1,0s-7.8,5.5-7.8,5.5l-10.7,9.5
	c-16.2,12.7-12.5,32.5-12.5,32.5l23.6,23.7l-10.3,47.6c0,0,4.4,7.1,2.1,10.2s20,2.3,20,2.3c15.4,6.9,69.5,1.1,69.5,1.1
	c-0.8-2-8-17.1-8-17.1c3.1-5.4,0.1-13.3,0.1-13.3s-3.1-37.2-5.1-42.3s5.1-33,9.8-32.7s34.9-15.1,34.9-15.1s-0.8-1.2,9.2-5.3
	c5.7-2.3,11-5.6,15.5-9.8l4.1-8.2c-2,0.8-8.6-11.8-8.6-11.8l-2.9,1.1l-1.7-0.5c0,0-13.1,3.7-15.8,6.5s-3.6,2-6,2.6s-2.7,2.3-3.5,2.1
	s-2.1,2.1-3.2,1.8s-3.3,0.9-4.8,1.2s-12.2,4.8-12.2,4.8c-6.6-3.4-24.6-2-24.6-2s-5.9-3.5-7.6,0c-0.9,2-2.9,3.3-5.1,3.3l-7.2-3.1
	C158.6,141.8,150.8,125.9,150.8,127.5z"/>
<path class="st0" d="M116.5,313.8c-3-3.3-2.7-8.4,0.7-11.4c0.4-0.3,0.7-0.6,1.1-0.8l-10.2-40l13.9,5.3l7.7,37.8
	c2.1,4,0.6,8.9-3.4,11C123,317.4,119,316.7,116.5,313.8z"/>
<path class="st2" d="M97.8,185.5l-1.3,16c0,0-1.6,17.5-1.2,20.8s1.2,23.1,1.2,23.1l13.2,26.2l15-4l-0.9-12.3l0.9,11.3l2-10l-5-17
	l3-6l-1.5-20.1L97.8,185.5z"/>
<path class="st3" d="M452.9,148.2l5,1.1c0-2.1,0.3-4.1,0.8-6.1c0.5,2.5,1.4,4.8,2.8,6.9l28.4,6.1l27.3-28.8
	c0-14.4-7.9-25.3-22.3-25.3c-0.9,0-1.8,0-2.7,0.1c-16.1-2.7-31.4,7.8-34.7,23.8C447.3,135.9,451,141.8,452.9,148.2z"/>
<polygon class="st4" points="438.9,484.7 428.6,484.7 423.7,445 438.9,445 "/>
<path class="st1" d="M443.6,504.3h-7.3l-1.3-6.9l-3.3,6.9h-19.4c-2.4,0-4.4-2-4.4-4.4c0-1.4,0.7-2.8,1.9-3.6l15.5-10.7v-7l16.3,1
	L443.6,504.3z"/>
<polygon class="st4" points="559.6,473.5 550.7,478.6 526.8,446.4 540,438.9 "/>
<path class="st1" d="M573.3,488.2l-6.4,3.6l-4.5-5.4l0.5,7.7l-16.9,9.6c-2.1,1.2-4.8,0.5-5.9-1.6c-0.7-1.2-0.8-2.8-0.1-4l8.2-16.9
	l-3.4-6.1l14.6-7.2L573.3,488.2z"/>
<path class="st4" d="M400.9,155.1c5,0.7,8.4,5.3,7.7,10.3c-0.1,0.5-0.2,1.1-0.4,1.6l15.8,13.6l-6,11.6l-22-19.6
	c-4.7-1.9-6.9-7.3-5-12C392.6,156.8,396.7,154.5,400.9,155.1z"/>
<path class="st1" d="M414.5,197.6l-10.5-16.8l11.7-12L424,179l10.3,4.6l14.2,8.6c2.8-3.3,24.5-28.2,34.2-21.1c2.4,1.6,3.9,4.2,4.2,7
	c0.7,6.7-5.3,13.5-5.5,13.7l-12.8,17.2c-0.4,1.1-4.6,12.3-11.2,15.3c-1.9,0.9-4.1,1-6,0.2c-17.5-6.8-29.3-14.5-34.5-22.5
	C415.8,200.7,415.1,199.2,414.5,197.6z"/>
<path class="st1" d="M453.5,232.6c0,0-30.3,48.3-24.8,53.7s14,6.9,14,6.9l18.9-24.5L453.5,232.6z"/>
<path class="st1" d="M480.3,166.7l-14.3,9.7c-13.6,9.2-19.5,26.4-14.3,42l4,12.2L480.3,166.7z"/>
<polygon class="st1" points="505.5,298.4 507.4,305.1 514,385.3 546.5,445.9 531,457 486.6,399.3 469,342 441.5,468.8 420.8,467.4 
	435.2,291.6 462.4,242.1 "/>
<path class="st2" d="M482.7,169.2l-19.9,16.2c-4.4,3.6-7.5,8.4-9,13.8l0,0c-0.7,2.5-1,5-0.9,7.6l0.6,35.3l-18.2,48.7
	c0,0,49.4,18.7,56,2.2C497.9,276.5,482.7,169.2,482.7,169.2z"/>
<path class="st1" d="M455,276.5l-3.3-13.2l0.8-32.8c0.1-1.9,10.2-31.5,23-63l11-11l5.9-3.9l13.1,12.1c0,0-1.7,33-1.1,66.8
	c0.1,9.3-1.5,20.3-2.2,28.5l6,26.7v14.8l-0.4,0.1c-0.4,0.1-6.4-0.1-31.1-0.1C456.3,301.5,469.9,287,455,276.5z"/>
<polygon class="st5" points="500,194.1 503,212.9 482.7,221.2 "/>
<circle class="st4" cx="479.6" cy="129.3" r="19.9"/>
<path class="st5" d="M512.9,230.1L512.9,230.1C502,242.7,484,246.4,469,239l-4.3-2.1L512.9,230.1z"/>
<path class="st4" d="M443.7,225.6c3.4-3.8,9.1-4.1,12.9-0.7c0.4,0.4,0.8,0.7,1.1,1.2l20.1-5.6l6.4,11.4l-28.5,7.6
	c-4.2,2.9-9.9,1.8-12.8-2.4C440.6,233.4,440.9,228.7,443.7,225.6L443.7,225.6z"/>
<path class="st1" d="M486.6,237.6l-19.8-0.4l-3.5-16.4l13-1.4l9.5-6.1l15-7.1c-1.2-4.2-10.1-36,1.3-40.1c2.6-1.1,5.6-1,8.1,0.3
	c5.9,3.1,8.3,11.8,8.4,12.2l7.3,20.2c0.7,0.9,7.7,10.6,6.5,17.8c-0.3,2.1-1.4,3.9-3.2,5.1c-15.3,10.8-28.2,16.4-37.8,16.4
	C489.9,238.2,488.3,238,486.6,237.6z"/>
<path class="st3" d="M455.7,116.2c1.6,2.1,7.1,3.9,13.6,5.4c0-0.1,0-0.3,0-0.4c0-2.1,0.3-4.1,0.8-6.1c0.5,2.5,1.4,4.8,2.8,6.9
	c0.1,0.2,0.2,0.3,0.3,0.5c5.6,1.1,11.5,2,16.1,2.5c-3.2,11.5-15.4,20.9-14.1,27.8l35.8,7.3c-0.2-2.9,0-5.8,0.7-8.6
	c0.7,3.7,2.5,7.2,5.2,9.8l3,0.6l0.9-4.5c7.8-18.8-3.1-38.1-21-48.1c-3.2-4.8-8.2-8.1-13.8-9.3l-4.5-0.9
	C469.7,96.7,458.2,104.3,455.7,116.2C455.7,116.2,455.7,116.2,455.7,116.2z"/>
<path class="st6" d="M17.1,480.1l-0.5-10.8c-5-2.7-10.6-4.1-16.3-4.1c7.8,6.4,6.9,18.8,12.2,27.4c3.4,5.4,9.1,9,15.4,9.7l6.6,4
	c1.8-10.2-0.9-20.6-7.4-28.6c-1.8-2.2-3.9-4.1-6.3-5.8C19.2,476,17.1,480.1,17.1,480.1z"/>
<path class="st7" d="M1.2,506.5h682.4c0.7,0,1.2-0.5,1.2-1.2c0-0.7-0.5-1.2-1.2-1.2H1.2c-0.7,0-1.2,0.5-1.2,1.2
	C0,506,0.5,506.5,1.2,506.5z"/>
<path class="st8" d="M371.4,68.1c2.5,10.9,3.7,23.2-2.9,32.9c-2.8,4.2-6.9,7.3-11.7,8.9c-4.8,1.4-9.9,1.7-14.9,0.9
	c-11.3-1.6-21.3-7.4-32.3-9.7c-4.9-1-10.1-1.3-14.8,0.6c-3.5,1.4-7.2,4.4-7.3,8.5c0,4.3,3.7,7.1,7.4,8.4c4.9,1.8,10,1.1,15.1,0.9
	c5.5-0.2,11.1,0.3,15.7,3.6c3.9,3.1,6.9,7.1,8.7,11.8c2.3,5.6,3.2,11.6,4.7,17.4c1.3,5.2,3.2,10.3,5.5,15.1
	c4.6,9.5,11.2,17.9,19.1,24.8c3.9,3.4,8.7,6.8,14.1,7.2c4.1,0.2,9.2-1.5,10.8-5.7c1.2-3.7-0.4-7.8-3.8-9.7c-3.6-1.8-7.4,0.8-8.6,4.3
	c-0.6,1.6-0.4,3.5,0.6,4.9c1.1,1.6-1.5,3.1-2.6,1.5c-2.5-3.7-1.2-8.7,1.9-11.7c3.1-3.1,8-3.5,11.5-0.9c3.6,2.7,5.2,7.3,4.2,11.7
	c-1.3,4.6-5.8,7.6-10.3,8.3c-5.6,0.9-11-1.3-15.5-4.5c-4.5-3.3-8.7-7.1-12.3-11.3c-7.4-8.5-12.9-18.4-16.2-29
	c-3.3-10.6-3.5-24.6-13.4-31.7c-5-3.7-11.2-3.3-17.2-2.9c-5.2,0.3-10.3,0.2-15.1-2.1c-4-2-7.2-5.6-7.2-10.2
	c-0.1-4.6,3.2-8.4,7.1-10.5c10.2-5.6,22.6-1.1,32.6,2.6c10.1,3.7,21.7,8.2,32.4,4.2c5-1.9,9-5.7,11.1-10.6c2.6-5.5,3-11.8,2.4-17.8
	c-0.4-3.2-0.9-6.3-1.6-9.4C368.1,67,371,66.2,371.4,68.1L371.4,68.1z"/>
<path class="st2" d="M353,37.6c3,9.9,7.4,19.3,13.3,27.8c1.4,2.1,3,4.1,4.5,6.1c1.2-2.2,2.7-4.3,4.5-6.2c6-6.6,14.2-11,22-15.4
	c7.9-4.4,15.9-9,21.4-16.1c2.5-3.2,4.3-6.9,5.2-10.8c1.3-5.3,0.8-10.9-2.3-15.3c-4.5-6.5-13.5-8.8-21.2-6.9
	c-7.7,1.9-14.1,7.2-19.1,13.3C383,6.6,375-0.6,367.4,0c-7.7,0.7-13.8,7.4-15.9,14.8C349.5,22.2,350.8,30.2,353,37.6z"/>
<g class="st9">
	<path d="M366.3,65.4c1.4,2.1,3,4.1,4.5,6.1c1.2-2.2,2.7-4.3,4.5-6.2c6-6.6,14.2-11,22-15.4c7.9-4.4,15.9-9,21.4-16.1
		c2.5-3.2,4.3-6.9,5.2-10.8C406.2,25.5,390,34.1,378,47.4C373.2,52.8,369.3,58.9,366.3,65.4z"/>
</g>
</svg>
